<svg xmlns="http://www.w3.org/2000/svg" viewBox="0 0 170 32.001">
  <g data-name="Group 18451">
    <g data-name="Group 18443" style="opacity:.5">
      <path data-name="Path 11358" d="m56.4 345.7 9.4 19.571 9.346-19.571h8.1v32h-6.535v-21.57l-8.567 18.33H63.4l-8.565-18.33v21.57H48.25v-32z" transform="translate(86.75 -345.705)" style="fill:#ffffff"/>
      <path data-name="Path 11221" d="M121.666 284.588a9.686 9.686 0 0 0 0 19.368 12.006 12.006 0 0 0 8.119-3.684l4.151 4.539a18.228 18.228 0 0 1-12.626 5.618c-9.324 0-16.374-6.965-16.374-16.089 0-9.079 7.185-15.911 16.642-15.911a17.71 17.71 0 0 1 12.312 5.214l-4.105 5.034a11.265 11.265 0 0 0-8.119-4.089z" transform="translate(-30.936 -278.428)" style="fill:#ffffff"/>
      <path data-name="Path 11245" d="m68.021 411.344-5.106-9.144h-7.4v9.144H48.25v-32h13.975c8.417 0 13.2 4.023 13.2 11.108 0 4.939-2.115 8.5-6.023 10.333l6.85 10.56zm-12.508-15.178h6.712c4 0 6.3-1.828 6.3-5.484 0-3.566-2.3-5.349-6.3-5.349h-6.712z" transform="translate(56.75 -379.344)" style="fill:#ffffff"/>
    </g>
    <g data-name="Group 18447">
      <path data-name="Path 11240" d="M147.387 361.66a16 16 0 1 1-16-15.955 15.719 15.719 0 0 1 16 15.955zm-25.108 0c0 5.529 4.214 9.842 9.193 9.842s9.024-4.314 9.024-9.842-4.044-9.752-9.024-9.752a9.432 9.432 0 0 0-9.193 9.752z" transform="translate(-115.387 -345.705)" style="fill:#ffffff"/>
      <path data-name="Path 11236" d="m56.4 345.7 9.4 19.571 9.346-19.571h8.1v32h-6.535v-21.57l-8.567 18.33H63.4l-8.565-18.33v21.57H48.25v-32z" transform="translate(-14.25 -345.705)" style="fill:#ffffff"/>
      <path data-name="Path 11227" d="M122.485 312.067v32h-8v-32z" transform="translate(-43.484 -312.066)" style="fill:#ffffff"/>
    </g>
  </g>
</svg>