<svg xmlns="http://www.w3.org/2000/svg" viewBox="0 0 64 64">
    <g data-name="Group 18492">
        <path data-name="Intersection 24" d="M19.544 61.485A32.008 32.008 0 1 1 48 4.278V20a20.158 20.158 0 0 0-1.858-2.137A19.977 19.977 0 1 0 48 44.005v15.716a32.077 32.077 0 0 1-28.455 1.764z" style="fill:#1468ee"/>
        <path data-name="Intersection 25" d="m0 44.187.036-.036a23.916 23.916 0 0 0 5.144-7.629 23.841 23.841 0 0 0 1.886-9.342 23.844 23.844 0 0 0-1.886-9.342A23.922 23.922 0 0 0 .036 10.21L0 10.174V0a32.07 32.07 0 0 1 5.63 4.49 31.909 31.909 0 0 1 6.858 10.172A31.8 31.8 0 0 1 15 27.118a31.8 31.8 0 0 1-2.515 12.456A31.9 31.9 0 0 1 5.63 49.745 32.07 32.07 0 0 1 0 54.238z" transform="translate(48.997 4.82)" style="opacity:.3;fill:#1468ee"/>
    </g>
</svg>