<svg xmlns="http://www.w3.org/2000/svg" viewBox="0 0 40 40">
    <defs>
        <linearGradient id="linear-gradient" x1=".5" x2=".5" y2="1" gradientUnits="objectBoundingBox">
            <stop offset="0" stop-color="#ffffff"/>
            <stop offset="1" stop-color="#ffffff"/>
        </linearGradient>
    </defs>
    <g id="Group_16441" data-name="Group 16441" transform="translate(-187 -187)" fill="url(#linear-gradient)">
        <path id="Intersection_13" data-name="Intersection 13" d="M0 28.066a15.342 15.342 0 0 0 4.757-11.115A15.342 15.342 0 0 0 0 5.837V0a20.163 20.163 0 0 1 3.515 2.81 19.869 19.869 0 0 1 5.858 14.141 19.87 19.87 0 0 1-5.858 14.143A20.157 20.157 0 0 1 0 33.9Z" transform="translate(217.627 190.048)" opacity=".3"/>
        <path id="Intersection_12" data-name="Intersection 12" d="M5.858 34.142A20.006 20.006 0 0 1 30.1 2.727V12.97a12.308 12.308 0 1 0 0 14.059v10.244a20.023 20.023 0 0 1-24.242-3.131Z" transform="translate(187 187)"/>
    </g>
</svg>