<svg version="1.1" xmlns="http://www.w3.org/2000/svg" xmlns:xlink="http://www.w3.org/1999/xlink" viewBox="0 0 172 172"><g fill="none" fill-rule="nonzero" stroke="none" stroke-width="1" stroke-linecap="butt" stroke-linejoin="miter" stroke-miterlimit="10" stroke-dasharray="" stroke-dashoffset="0" font-family="none" font-weight="none" font-size="none" text-anchor="none" style="mix-blend-mode: normal"><path d="M0,172v-172h172v172z" fill="none"></path><g fill="#1e3150"><path d="M86,14.33333c-39.5815,0 -71.66667,32.08517 -71.66667,71.66667c0,39.5815 32.08517,71.66667 71.66667,71.66667c39.5815,0 71.66667,-32.08517 71.66667,-71.66667c0,-39.5815 -32.08517,-71.66667 -71.66667,-71.66667zM113.09358,105.48975c2.09983,2.09983 2.09983,5.50042 0,7.60025c-1.04992,1.0535 -2.42592,1.57667 -3.80192,1.57667c-1.376,0 -2.752,-0.52317 -3.80192,-1.57308l-19.48975,-19.49333l-19.48975,19.48975c-1.04992,1.0535 -2.42592,1.57667 -3.80192,1.57667c-1.376,0 -2.752,-0.52317 -3.80192,-1.57308c-2.09983,-2.09983 -2.09983,-5.50042 0,-7.60025l19.49333,-19.49333l-19.48975,-19.48975c-2.09983,-2.09983 -2.09983,-5.50042 0,-7.60025c2.09983,-2.09983 5.50042,-2.09983 7.60025,0l19.48975,19.48975l19.48975,-19.48975c2.09983,-2.09983 5.50042,-2.09983 7.60025,0c2.09983,2.09983 2.09983,5.50042 0,7.60025l-19.48975,19.48975z"></path></g></g></svg>