<svg version="1.1"
    xmlns="http://www.w3.org/2000/svg"
    xmlns:xlink="http://www.w3.org/1999/xlink" viewBox="0 0 172 172">
    <g fill="none" fill-rule="nonzero" stroke="none" stroke-width="1" stroke-linecap="butt" stroke-linejoin="miter" stroke-miterlimit="10" stroke-dasharray="" stroke-dashoffset="0" font-family="none" font-weight="none" font-size="none" text-anchor="none" style="mix-blend-mode: normal">
        <path d="M0,172v-172h172v172z" fill="none"></path>
        <g fill="#494949">
            <path d="M141.49268,25.00635c-1.4195,0.03352 -2.76808,0.6273 -3.7513,1.65169l-51.74137,51.74137l-51.74137,-51.74137c-1.01222,-1.0424 -2.4033,-1.63064 -3.85628,-1.6307c-2.18814,0.00053 -4.1576,1.32735 -4.98005,3.35504c-0.82245,2.02769 -0.33375,4.35156 1.23575,5.87624l51.74137,51.74137l-51.74137,51.74137c-1.40412,1.34815 -1.96972,3.35005 -1.47867,5.23364c0.49105,1.8836 1.96202,3.35457 3.84561,3.84562c1.8836,0.49105 3.88549,-0.07455 5.23364,-1.47867l51.74137,-51.74137l51.74137,51.74137c1.34815,1.40412 3.35005,1.96971 5.23364,1.47866c1.88359,-0.49105 3.35456,-1.96202 3.84561,-3.84561c0.49105,-1.88359 -0.07455,-3.88549 -1.47866,-5.23364l-51.74137,-51.74137l51.74137,-51.74137c1.59981,-1.53549 2.09259,-3.89575 1.24083,-5.94309c-0.85177,-2.04734 -2.87328,-3.36156 -5.09011,-3.30919z"></path>
        </g>
    </g>
</svg>